HIERARCHY
ROOT Pelvis
{
	OFFSET 0.000000 0.000000 0.000000
	CHANNELS 6 Xposition Yposition Zposition Xrotation Yrotation Zrotation
	JOINT LeftUpLeg_virtual
	{
		OFFSET 0.000000 0.000000 0.000000
		CHANNELS 3 Xrotation Yrotation Zrotation
		JOINT LeftUpLeg
		{
			OFFSET 18.735201 -5.666702 -4.541200
			CHANNELS 3 Xrotation Yrotation Zrotation
			JOINT LeftLeg
			{
				OFFSET -0.021200 -31.938179 0.493100
				CHANNELS 3 Xrotation Yrotation Zrotation
				JOINT LeftFoot
				{
					OFFSET 0.021200 -31.938179 -4.336299
					CHANNELS 3 Xrotation Yrotation Zrotation
					JOINT LeftToeBase
					{
						OFFSET 0.943001 -26.722000 15.023500
						CHANNELS 3 Xrotation Yrotation Zrotation
						End Site
						{
							OFFSET 0 0 0
						}
					}
				}
			}
		}
	}
	JOINT RightUpLeg_virtual
	{
		OFFSET 0.000000 0.000000 0.000000
		CHANNELS 3 Xrotation Yrotation Zrotation
		JOINT RightUpLeg
		{
			OFFSET -18.735201 -5.666702 -4.541200
			CHANNELS 3 Xrotation Yrotation Zrotation
			JOINT RightLeg
			{
				OFFSET 0.018946 -31.938133 0.493100
				CHANNELS 3 Xrotation Yrotation Zrotation
				JOINT RightFoot
				{
					OFFSET -0.018946 -31.938126 -4.336299
					CHANNELS 3 Xrotation Yrotation Zrotation
					JOINT RightToeBase
					{
						OFFSET -0.943001 -26.722004 15.023500
						CHANNELS 3 Xrotation Yrotation Zrotation
						End Site
						{
							OFFSET 0 0 0
						}
					}
				}
			}
		}
	}
	JOINT Hips_virtual
	{
		OFFSET 0.000000 0.000000 0.000000
		CHANNELS 3 Xrotation Yrotation Zrotation
		JOINT Hips
		{
			OFFSET -0.000000 -0.000000 -0.000000
			CHANNELS 3 Xrotation Yrotation Zrotation
			JOINT Spine
			{
				OFFSET 0.000000 10.199997 -0.299500
				CHANNELS 3 Xrotation Yrotation Zrotation
				JOINT Spine1
				{
					OFFSET 0.000000 11.900002 -1.516600
					CHANNELS 3 Xrotation Yrotation Zrotation
					JOINT Spine2
					{
						OFFSET 0.000000 13.600006 -2.842500
						CHANNELS 3 Xrotation Yrotation Zrotation
						JOINT Neck_virtual
						{
							OFFSET 0.000000 0.000000 0.000000
							CHANNELS 3 Xrotation Yrotation Zrotation
							JOINT Neck
							{
								OFFSET 0.000000 9.624100 -2.890100
								CHANNELS 3 Xrotation Yrotation Zrotation
								JOINT Head
								{
									OFFSET 0.000000 14.068802 -1.351900
									CHANNELS 3 Xrotation Yrotation Zrotation
									End Site
									{
										OFFSET 0 0 0
									}
								}
							}
						}
						JOINT LeftShoulder_virtual
						{
							OFFSET 0.000000 0.000000 0.000000
							CHANNELS 3 Xrotation Yrotation Zrotation
							JOINT LeftShoulder
							{
								OFFSET 15.263000 10.923401 -0.547700
								CHANNELS 3 Xrotation Yrotation Zrotation
								JOINT LeftArm
								{
									OFFSET 25.438599 -2.830597 -13.032500
									CHANNELS 3 Xrotation Yrotation Zrotation
									JOINT LeftForeArm
									{
										OFFSET 29.960503 0.000000 0.000000
										CHANNELS 3 Xrotation Yrotation Zrotation
										JOINT LeftHand
										{
											OFFSET 27.849251 0.000000 0.000000
											CHANNELS 3 Xrotation Yrotation Zrotation
											End Site
											{
												OFFSET 0 0 0
											}
										}
									}
								}
							}
						}
						JOINT RightShoulder_virtual
						{
							OFFSET 0.000000 0.000000 0.000000
							CHANNELS 3 Xrotation Yrotation Zrotation
							JOINT RightShoulder
							{
								OFFSET -15.263000 10.923401 -0.547700
								CHANNELS 3 Xrotation Yrotation Zrotation
								JOINT RightArm
								{
									OFFSET -25.438599 -2.830597 -13.032500
									CHANNELS 3 Xrotation Yrotation Zrotation
									JOINT RightForeArm
									{
										OFFSET -29.960503 0.000000 0.000000
										CHANNELS 3 Xrotation Yrotation Zrotation
										JOINT RightHand
										{
											OFFSET -27.849251 0.000000 0.000000
											CHANNELS 3 Xrotation Yrotation Zrotation
											End Site
											{
												OFFSET 0 0 0
											}
										}
									}
								}
							}
						}
					}
				}
			}
		}
	}
}
MOTION
Frames: 9
Frame Time: 0.03333333
-9.266544 88.301918 15.311504 0.000000 0.000000 0.000000 -20.390953 -32.674457 -4.755690 -80.620869 -1.408605 43.138935 107.094429 -21.933008 -26.191677 -48.000896 6.422174 2.554041 0.000000 0.000000 0.000000 -21.655852 -32.089854 -4.767822 -109.373096 11.892298 -1.659553 135.529559 4.605436 21.348388 -17.281804 -4.342667 -10.741953 0.000000 0.000000 0.000000 -20.446164 -30.844438 -4.037165 -0.996084 -0.332128 0.021737 0.339633 -11.924415 4.129849 10.500163 -1.022159 -2.159118 0.000000 0.000000 0.000000 9.754175 -0.571413 -2.377339 -8.989674 -2.648478 3.708900 0.000000 0.000000 0.000000 10.142212 0.016966 -1.928981 -9.575558 -2.175523 49.555474 -47.974993 1.866739 4.241806 -63.631620 -64.216155 -58.874448 0.000000 0.000000 0.000000 6.564562 -0.369612 -1.409631 10.281894 -0.885783 -32.537136 -41.882344 24.823453 -26.323081 -52.336116 42.696230 92.265925 0.000000 0.000000 0.000000 
-9.002338 87.821625 14.650825 0.000000 0.000000 0.000000 -21.070427 -31.763016 -4.892290 -81.775171 -1.879643 43.049467 108.932331 -21.564504 -25.343926 -46.861525 5.236843 2.843623 0.000000 0.000000 0.000000 -22.644276 -31.430413 -4.851191 -109.269045 11.810649 -1.845543 135.354228 4.629810 20.861515 -15.805719 -4.793463 -8.655590 0.000000 0.000000 0.000000 -21.367839 -30.524173 -4.167517 -0.914366 -0.443206 0.135659 1.118300 -12.341870 4.066171 10.360991 -1.104455 -1.569499 0.000000 0.000000 0.000000 9.118076 -0.405977 -2.135892 -8.882068 -2.899639 3.885982 0.000000 0.000000 0.000000 10.106317 0.145454 -1.709461 -9.084779 -2.990631 48.879880 -49.226519 2.082367 6.155459 -65.065338 -63.991182 -59.900834 0.000000 0.000000 0.000000 6.719833 -0.222701 -1.162267 10.065473 -1.345358 -31.442684 -41.698015 25.439420 -24.635130 -52.639933 42.989959 91.798999 0.000000 0.000000 0.000000 
-8.703972 87.396004 14.212663 0.000000 0.000000 0.000000 -22.678864 -30.950292 -5.320097 -82.011591 -2.826837 41.877454 110.407283 -20.870975 -24.268564 -44.455017 4.581791 3.103744 0.000000 0.000000 0.000000 -24.183222 -30.625318 -5.156326 -108.536480 11.587262 -1.288241 135.517920 4.013432 20.412051 -16.933806 -6.226165 -9.554996 0.000000 0.000000 0.000000 -23.001663 -29.755545 -4.577098 -0.854928 -0.423544 0.200615 2.571030 -12.246934 3.283770 9.320147 -0.879604 -0.696295 0.000000 0.000000 0.000000 6.808502 0.111607 -1.406459 -8.629712 -3.245574 4.013889 0.000000 0.000000 0.000000 8.999769 0.577419 -0.922581 -7.949612 -4.182935 47.662262 -49.031230 1.366195 7.659036 -64.694445 -62.893714 -58.877405 0.000000 0.000000 0.000000 6.186166 0.183576 -0.643616 9.728411 -0.651280 -30.542256 -40.656831 25.508648 -25.125730 -53.835042 43.647596 91.724256 0.000000 0.000000 0.000000 
-8.437222 87.334518 14.026692 0.000000 0.000000 0.000000 -24.927689 -30.207905 -5.909243 -81.110149 -3.958183 39.647841 110.874392 -19.776999 -23.344465 -40.630661 4.564940 3.427142 0.000000 0.000000 0.000000 -25.896389 -29.565942 -5.586340 -106.352582 11.471630 -0.674822 135.542235 2.937890 20.555524 -21.759904 -8.023684 -13.170271 0.000000 0.000000 0.000000 -25.033456 -28.668018 -5.162924 -0.853209 -0.297414 0.170954 4.240869 -11.754413 2.133888 7.922464 -0.438610 0.052828 0.000000 0.000000 0.000000 4.072755 0.713135 -0.500304 -8.228749 -3.585813 3.979304 0.000000 0.000000 0.000000 7.343385 1.112532 0.030558 -6.471080 -5.441394 46.260543 -47.155414 0.186312 8.168558 -63.380877 -61.375773 -56.666794 0.000000 0.000000 0.000000 5.224288 0.691540 -0.061568 9.637329 1.001206 -30.477482 -39.056115 24.622350 -26.339486 -55.334436 44.841889 91.472140 0.000000 0.000000 0.000000 
-8.300600 87.675575 13.777514 0.000000 0.000000 0.000000 -27.517070 -29.284166 -6.489896 -78.972054 -4.803718 36.596488 110.165713 -18.233291 -22.746750 -35.066468 5.283746 3.855961 0.000000 0.000000 0.000000 -27.753965 -28.091900 -6.050891 -102.783610 11.832597 -0.980504 134.762528 2.278387 20.966514 -24.462065 -9.267756 -16.036746 0.000000 0.000000 0.000000 -27.338471 -27.495470 -5.802825 -0.909955 -0.179555 0.008649 5.583719 -11.298424 1.207500 7.016684 -0.054773 0.460341 0.000000 0.000000 0.000000 2.400613 1.183759 0.245655 -7.666902 -3.819159 3.745848 0.000000 0.000000 0.000000 6.265397 1.520314 0.735503 -4.789683 -6.795281 44.723010 -44.701122 -1.064892 7.759255 -63.257339 -60.158346 -55.293650 0.000000 0.000000 0.000000 4.623043 1.134369 0.316889 9.857948 3.317261 -31.553732 -37.400589 22.880166 -26.492572 -57.001115 46.763467 90.585350 0.000000 0.000000 0.000000 
-8.277283 88.553535 13.034901 0.000000 0.000000 0.000000 -29.920532 -27.610669 -6.714510 -75.628595 -5.237568 33.167023 108.097326 -16.109479 -22.617273 -27.522590 6.877895 4.560767 0.000000 0.000000 0.000000 -29.829864 -26.044194 -6.294584 -98.533989 13.183353 -2.654414 132.951326 2.540041 20.879128 -20.423020 -9.857824 -16.113084 0.000000 0.000000 0.000000 -29.773505 -25.948189 -6.225754 -0.960051 -0.122235 -0.162573 6.091187 -11.194864 1.156165 7.302635 0.114636 0.407173 0.000000 0.000000 0.000000 3.043022 1.400806 0.528300 -6.933004 -3.907496 3.339080 0.000000 0.000000 0.000000 6.779109 1.671965 0.810246 -3.348960 -7.684736 43.016480 -42.671446 -2.210328 6.182803 -64.987228 -59.819248 -55.298417 0.000000 0.000000 0.000000 5.277090 1.392491 0.275922 10.528089 6.073802 -33.642616 -36.619745 20.814976 -23.740996 -58.749216 49.422586 88.943297 0.000000 0.000000 0.000000 
-8.226307 90.028046 11.532337 0.000000 0.000000 0.000000 -32.008435 -25.242846 -6.393643 -71.373530 -5.242076 30.164369 104.501068 -13.447157 -22.858186 -18.446258 9.157246 5.284374 0.000000 0.000000 0.000000 -32.045841 -23.478278 -6.080418 -93.520439 15.508441 -6.042208 129.867905 3.497751 20.395758 -10.244149 -9.536233 -13.886174 0.000000 0.000000 0.000000 -32.030319 -24.185357 -6.044635 -0.942926 -0.123981 -0.255093 5.792365 -11.400542 2.096569 9.016507 0.099750 0.032820 0.000000 0.000000 0.000000 6.207581 1.378347 0.334103 -6.020126 -3.837692 2.809839 0.000000 0.000000 0.000000 9.023416 1.592782 0.281120 -2.455215 -7.953269 40.981282 -42.202557 -2.716288 2.682018 -67.494864 -60.452754 -55.486391 0.000000 0.000000 0.000000 7.473086 1.444934 -0.108794 11.593822 9.022175 -35.700074 -36.591980 18.221008 -19.106570 -60.628249 52.695681 86.953793 0.000000 0.000000 0.000000 
-8.081718 92.216980 9.194471 0.000000 0.000000 0.000000 -33.705737 -22.752579 -5.632571 -66.652278 -4.736296 28.064778 99.013264 -10.392080 -23.388875 -8.631881 11.739482 5.810588 0.000000 0.000000 0.000000 -33.932038 -20.956506 -5.383057 -86.416653 17.565952 -11.057514 125.122509 4.687230 20.342960 0.485246 -7.696611 -10.742071 0.000000 0.000000 0.000000 -33.860864 -22.616875 -5.328752 -0.921611 -0.120421 -0.207402 5.235897 -11.930170 3.623379 11.892983 -0.143006 -0.508331 0.000000 0.000000 0.000000 11.026075 1.144858 -0.219107 -5.052160 -3.640784 2.182301 0.000000 0.000000 0.000000 12.486745 1.320927 -0.712976 -2.165044 -7.764959 38.331380 -43.240374 -2.785203 -2.226049 -72.009715 -62.555148 -57.482503 0.000000 0.000000 0.000000 10.850829 1.278819 -0.668403 12.623136 11.763465 -36.666375 -37.162557 15.652756 -15.022398 -63.097636 56.130539 85.482659 0.000000 0.000000 0.000000 
-7.731950 95.188484 6.507641 0.000000 0.000000 0.000000 -34.674763 -20.999615 -4.833215 -61.351116 -3.558473 26.860224 90.737458 -7.060684 -24.030463 1.328972 13.989974 5.882953 0.000000 0.000000 0.000000 -35.046896 -19.225620 -4.622518 -76.187851 17.966131 -16.714723 118.004632 5.290300 21.365098 6.542472 -3.998383 -7.083196 0.000000 0.000000 0.000000 -34.949197 -21.497595 -4.440251 -0.891896 -0.120713 -0.080934 4.944053 -12.667125 5.182631 15.064250 -0.578896 -0.915487 0.000000 0.000000 0.000000 16.095407 0.786449 -0.847568 -4.221946 -3.347142 1.502416 0.000000 0.000000 0.000000 16.269125 0.877699 -1.801461 -2.234441 -7.405995 34.865561 -44.075651 -2.507349 -7.654053 -80.488677 -66.450480 -63.935447 0.000000 0.000000 0.000000 14.187215 0.958183 -1.130066 13.471976 14.217929 -36.166070 -38.241813 14.633322 -12.563083 -65.499629 59.279731 84.423467 0.000000 0.000000 0.000000 
